<svg xmlns="http://www.w3.org/2000/svg" xmlns:svg="http://www.w3.org/2000/svg" id="svg2" width="290.945" height="111.686" version="1.1" viewBox="0 0 290.945 111.686" xml:space="preserve"><metadata id="metadata8"/><g id="g414" transform="matrix(1.25,0,0,-1.25,145.49391,98.00161)"><g id="g416"><g id="g426"><path id="path428" d="m -64.59846,15.69797 3.98837,44.6719 c 0.54841,6.14342 5.98903,11.12349 12.15208,11.12349 l 137.59918,0 c 6.16306,0 11.60367,-4.98007 12.1521,-11.12349 l 3.7047,-41.49398" style="fill:none;stroke:#ff1919;stroke-width:1.19553006;stroke-linecap:round;stroke-linejoin:miter;stroke-miterlimit:10;stroke-dasharray:none;stroke-opacity:1"/><g id="g430" transform="matrix(0.08897,-0.99681,0.99681,0.08897,104.99797,18.87589)"><g id="g432"><path id="path434" d="M 3.18808,0 -1.91284,2.55046 0,0 -1.91284,-2.55046" style="fill:#ff1919;fill-opacity:1;fill-rule:nonzero;stroke:none"/></g></g></g><g id="g436"><g id="g438"><path id="path440" d="m 31.90727,78.00278 -23.13139,0 c -1.10046,0 -1.99255,-0.89209 -1.99255,-1.99256 l 0,-7.94885 c 0,-1.10047 0.89209,-1.99255 1.99255,-1.99255 l 23.13139,0 c 1.10048,0 1.99256,0.89208 1.99256,1.99255 l 0,7.94885 c 0,1.10047 -0.89208,1.99256 -1.99256,1.99256 z" style="fill:#fff2e6;fill-opacity:1;fill-rule:nonzero;stroke:#000;stroke-width:.79701;stroke-linecap:butt;stroke-linejoin:miter;stroke-miterlimit:10;stroke-dasharray:none;stroke-opacity:1"/></g><g id="g442"><g id="g444" transform="scale(-1,-1)"><g id="g448" transform="matrix(-1,0,0,-1,172.54,-135.19)"><g id="g452" transform="matrix(0.7,0,0,0.7,60.72,28.77)"><text id="text454" transform="matrix(1,0,0,-1,172.54,-135.19)" style="font-variant:normal;font-weight:700;font-size:11.95499992px;font-family:Arial;-inkscape-font-specification:Arial-BoldMT;writing-mode:lr-tb;fill:#000;fill-opacity:1;fill-rule:nonzero;stroke:none"><tspan id="tspan456" x="0 7.305 17.933 25.237" y="0">nmod</tspan></text></g></g></g></g></g></g></g><g id="g322" transform="matrix(1.25,0,0,-1.25,145.49391,98.00161)"><g id="g324"><g id="g334"><path id="path336" d="m -72.56868,15.69797 -4.01724,14.9985 c -0.53248,1.98823 -2.62949,3.59996 -4.68382,3.59996 l -19.07409,0 c -2.05433,0 -4.15133,-1.61173 -4.68382,-3.59996 l -3.19081,-11.91302" style="fill:none;stroke:#ff1919;stroke-width:1.19553006;stroke-linecap:round;stroke-linejoin:miter;stroke-miterlimit:10;stroke-dasharray:none;stroke-opacity:1"/><g id="g338" transform="matrix(-0.25923,-0.96782,0.96782,-0.25923,-108.21844,18.78345)"><g id="g340"><path id="path342" d="M 3.18808,0 -1.91284,2.55046 0,0 -1.91284,-2.55046" style="fill:#ff1919;fill-opacity:1;fill-rule:nonzero;stroke:none"/></g></g></g><g id="g344"><g id="g346"><path id="path348" d="m -84.353,40.80585 -12.90754,0 c -1.10048,0 -1.99256,-0.89209 -1.99256,-1.99255 l 0,-7.94886 c 0,-1.10046 0.89208,-1.99255 1.99256,-1.99255 l 12.90754,0 c 1.10047,0 1.99256,0.89209 1.99256,1.99255 l 0,7.94886 c 0,1.10046 -0.89209,1.99255 -1.99256,1.99255 z" style="fill:#fff2e6;fill-opacity:1;fill-rule:nonzero;stroke:#000;stroke-width:.79701;stroke-linecap:butt;stroke-linejoin:miter;stroke-miterlimit:10;stroke-dasharray:none;stroke-opacity:1"/></g><g id="g350"><g id="g352" transform="scale(-1,-1)"><g id="g356" transform="matrix(-1,0,0,-1,172.54,-135.19)"><g id="g360" transform="matrix(0.7,0,0,0.7,-45.32,-8.43)"><text id="text362" transform="matrix(1,0,0,-1,172.54,-135.19)" style="font-variant:normal;font-weight:700;font-size:11.95499992px;font-family:Arial;-inkscape-font-specification:Arial-BoldMT;writing-mode:lr-tb;fill:#000;fill-opacity:1;fill-rule:nonzero;stroke:none"><tspan id="tspan364" x="0 7.305 13.951" y="0">det</tspan></text></g></g></g></g></g></g></g><g id="g22" transform="matrix(1.25,0,0,-1.25,145.49391,98.00161)"><path id="path24" d="m -52.32422,15.69797 -32.51869,0 c -1.10048,0 -1.99255,-0.89209 -1.99255,-1.99256 l 0,-13.46199 c 0,-1.10046 0.89207,-1.99253 1.99255,-1.99253 l 32.51869,0 c 1.10048,0 1.99255,0.89207 1.99255,1.99253 l 0,13.46199 c 0,1.10047 -0.89207,1.99256 -1.99255,1.99256 z" style="fill:#f93;fill-opacity:1;fill-rule:nonzero;stroke:red;stroke-width:.3985;stroke-linecap:butt;stroke-linejoin:miter;stroke-miterlimit:10;stroke-dasharray:none;stroke-opacity:1"/></g><g id="g42" transform="matrix(1.25,0,0,-1.25,145.49391,98.00161)"><path id="path44" d="m 77.31638,15.69797 -52.4423,0 c -1.10048,0 -1.99255,-0.89209 -1.99255,-1.99256 l 0,-13.46199 c 0,-1.10046 0.89207,-1.99253 1.99255,-1.99253 l 52.4423,0 c 1.10046,0 1.99255,0.89207 1.99255,1.99253 l 0,13.46199 c 0,1.10047 -0.89209,1.99256 -1.99255,1.99256 z" style="fill:#f93;fill-opacity:1;fill-rule:nonzero;stroke:red;stroke-width:.3985;stroke-linecap:butt;stroke-linejoin:miter;stroke-miterlimit:10;stroke-dasharray:none;stroke-opacity:1"/></g><g id="g64" transform="matrix(1.25,0,0,-1.25,145.49391,98.00161)"><g id="g66"><g id="g68"><g id="g70" transform="scale(-1,-1)"><g id="g74" transform="matrix(-1,0,0,-1,172.54,-135.19)"><g id="g78" transform="translate(-120.11,-10.85)"><g id="g80" transform="translate(183.61,-121.24)"><g id="g82"><g id="g84"><g id="g86"><g id="g88" transform="scale(-1,-1)"><g id="g92" transform="matrix(-1,0,0,-1,183.61,-121.24)"><g id="g96" transform="translate(-7.31,0)"><text id="text98" transform="matrix(1,0,0,-1,183.61,-121.24)" style="font-variant:normal;font-weight:400;font-size:11.95499992px;font-family:Arial;-inkscape-font-specification:ArialMT;writing-mode:lr-tb;fill:#000;fill-opacity:1;fill-rule:nonzero;stroke:none"><tspan id="tspan100" x="0 7.974" y="0">An</tspan></text></g></g></g></g></g></g></g><g id="g104" transform="translate(224.07,-121.24)"><g id="g106"><g id="g108"><g id="g110"><g id="g112" transform="scale(-1,-1)"><g id="g116" transform="matrix(-1,0,0,-1,224.07,-121.24)"><g id="g120" transform="translate(-14.95,0)"><text id="text122" transform="matrix(1,0,0,-1,224.07,-121.24)" style="font-variant:normal;font-weight:400;font-size:11.95499992px;font-family:Arial;-inkscape-font-specification:ArialMT;writing-mode:lr-tb;fill:#000;fill-opacity:1;fill-rule:nonzero;stroke:none"><tspan id="tspan124" x="0 6.647 13.294 15.948 19.271 25.918" y="0">editor</tspan></text></g></g></g></g></g></g></g><g id="g128" transform="translate(293.1,-121.24)"><g id="g130"><g id="g132"><g id="g134"><g id="g136" transform="scale(-1,-1)"><g id="g140" transform="matrix(-1,0,0,-1,293.1,-121.24)"><g id="g144" transform="translate(-6.98,0)"><text id="text146" transform="matrix(1,0,0,-1,293.1,-121.24)" style="font-variant:normal;font-weight:400;font-size:11.95499992px;font-family:Arial;-inkscape-font-specification:ArialMT;writing-mode:lr-tb;fill:#000;fill-opacity:1;fill-rule:nonzero;stroke:none"><tspan id="tspan148" x="0 3.323 9.97" y="0">for</tspan></text></g></g></g></g></g></g></g><g id="g152" transform="translate(343.75,-121.24)"><g id="g154"><g id="g156"><g id="g158"><g id="g160" transform="scale(-1,-1)"><g id="g164" transform="matrix(-1,0,0,-1,343.75,-121.24)"><g id="g168" transform="translate(-24.91,0)"><text id="text170" transform="matrix(1,0,0,-1,343.75,-121.24)" style="font-variant:normal;font-weight:400;font-size:11.95499992px;font-family:Arial;-inkscape-font-specification:ArialMT;writing-mode:lr-tb;fill:#000;fill-opacity:1;fill-rule:nonzero;stroke:none"><tspan id="tspan172" x="0 8.632 15.278 23.91 30.557 37.204 41.185" y="0">CoNLL-U</tspan></text></g></g></g></g></g></g></g><g id="g176" transform="translate(397.93,-121.24)"><g id="g178"><g id="g180"><g id="g182"><g id="g184" transform="scale(-1,-1)"><g id="g188" transform="matrix(-1,0,0,-1,397.93,-121.24)"><g id="g192" transform="translate(-10.63,0)"><text id="text194" transform="matrix(1,0,0,-1,397.93,-121.24)" style="font-variant:normal;font-weight:400;font-size:11.95499992px;font-family:Arial;-inkscape-font-specification:ArialMT;writing-mode:lr-tb;fill:#000;fill-opacity:1;fill-rule:nonzero;stroke:none"><tspan id="tspan196" x="0 3.323 5.978 8.632 15.278" y="0">files</tspan></text></g></g></g></g></g></g></g><g id="g200" transform="translate(183.61,-135.19)"><g id="g202"><g id="g204"><g id="g206"><g id="g208" transform="scale(-1,-1)"><g id="g212" transform="matrix(-1,0,0,-1,183.61,-135.19)"><g id="g216" transform="translate(-7.97,0)"><text id="text218" transform="matrix(1,0,0,-1,183.61,-135.19)" style="font-variant:normal;font-weight:400;font-size:7.96999979px;font-family:Arial;-inkscape-font-specification:ArialMT;writing-mode:lr-tb;fill:#000;fill-opacity:1;fill-rule:nonzero;stroke:none"><tspan id="tspan220" x="0 5.754 11.07" y="0">DET</tspan></text></g></g></g></g></g></g></g><g id="g224" transform="translate(224.07,-135.19)"><g id="g226"><g id="g228"><g id="g230"><g id="g232" transform="scale(-1,-1)"><g id="g236" transform="matrix(-1,0,0,-1,224.07,-135.19)"><g id="g240" transform="translate(-11.73,0)"><text id="text242" transform="matrix(1,0,0,-1,224.07,-135.19)" style="font-variant:normal;font-weight:400;font-size:7.96999979px;font-family:Arial;-inkscape-font-specification:ArialMT;writing-mode:lr-tb;fill:#000;fill-opacity:1;fill-rule:nonzero;stroke:none"><tspan id="tspan244" x="0 5.754 11.955 17.709" y="0">NOUN</tspan></text></g></g></g></g></g></g></g><g id="g248" transform="translate(293.1,-135.19)"><g id="g250"><g id="g252"><g id="g254"><g id="g256" transform="scale(-1,-1)"><g id="g260" transform="matrix(-1,0,0,-1,293.1,-135.19)"><g id="g264" transform="translate(-8.19,0)"><text id="text266" transform="matrix(1,0,0,-1,293.1,-135.19)" style="font-variant:normal;font-weight:400;font-size:7.96999979px;font-family:Arial;-inkscape-font-specification:ArialMT;writing-mode:lr-tb;fill:#000;fill-opacity:1;fill-rule:nonzero;stroke:none"><tspan id="tspan268" x="0 5.316 11.07" y="0">ADP</tspan></text></g></g></g></g></g></g></g><g id="g272" transform="translate(343.75,-135.19)"><g id="g274"><g id="g276"><g id="g278"><g id="g280" transform="scale(-1,-1)"><g id="g284" transform="matrix(-1,0,0,-1,343.75,-135.19)"><g id="g288" transform="translate(-14.17,0)"><text id="text290" transform="matrix(1,0,0,-1,343.75,-135.19)" style="font-variant:normal;font-weight:400;font-size:7.96999979px;font-family:Arial;-inkscape-font-specification:ArialMT;writing-mode:lr-tb;fill:#000;fill-opacity:1;fill-rule:nonzero;stroke:none"><tspan id="tspan292" x="0 5.316 11.07 17.271 22.587" y="0">PROPN</tspan></text></g></g></g></g></g></g></g><g id="g296" transform="translate(397.93,-135.19)"><g id="g298"><g id="g300"><g id="g302"><g id="g304" transform="scale(-1,-1)"><g id="g308" transform="matrix(-1,0,0,-1,397.93,-135.19)"><g id="g312" transform="translate(-11.73,0)"><text id="text314" transform="matrix(1,0,0,-1,397.93,-135.19)" style="font-variant:normal;font-weight:400;font-size:7.96999979px;font-family:Arial;-inkscape-font-specification:ArialMT;writing-mode:lr-tb;fill:#000;fill-opacity:1;fill-rule:nonzero;stroke:none"><tspan id="tspan316" x="0 5.754 11.955 17.709" y="0">NOUN</tspan></text></g></g></g></g></g></g></g></g></g></g></g></g></g><g id="g368" transform="matrix(1.25,0,0,-1.25,145.49391,98.00161)"><g id="g370"><g id="g380"><path id="path382" d="m 101.29652,15.69797 -3.99357,29.81965 c -0.54556,4.07441 -4.31848,7.37728 -8.42719,7.37728 l -76.00666,0 c -4.10871,0 -7.88164,-3.30287 -8.42719,-7.37728 L 0.87164,18.85944" style="fill:none;stroke:#ff1919;stroke-width:1.19553006;stroke-linecap:round;stroke-linejoin:miter;stroke-miterlimit:10;stroke-dasharray:none;stroke-opacity:1"/><g id="g384" transform="matrix(-0.13278,-0.99165,0.99165,-0.13278,0.87166,18.85945)"><g id="g386"><path id="path388" d="M 3.18808,0 -1.91284,2.55046 0,0 -1.91284,-2.55046" style="fill:#ff1919;fill-opacity:1;fill-rule:nonzero;stroke:none"/></g></g></g><g id="g390"><g id="g392"><path id="path394" d="m 60.35822,59.40431 -18.97158,0 c -1.10046,0 -1.99255,-0.89209 -1.99255,-1.99255 l 0,-7.94886 c 0,-1.10046 0.89209,-1.99255 1.99255,-1.99255 l 18.97158,0 c 1.10048,0 1.99255,0.89209 1.99255,1.99255 l 0,7.94886 c 0,1.10046 -0.89207,1.99255 -1.99255,1.99255 z" style="fill:#fff2e6;fill-opacity:1;fill-rule:nonzero;stroke:#000;stroke-width:.79701;stroke-linecap:butt;stroke-linejoin:miter;stroke-miterlimit:10;stroke-dasharray:none;stroke-opacity:1"/></g><g id="g396"><g id="g398" transform="scale(-1,-1)"><g id="g402" transform="matrix(-1,0,0,-1,172.54,-135.19)"><g id="g406" transform="matrix(0.7,0,0,0.7,93.33,10.17)"><text id="text408" transform="matrix(1,0,0,-1,172.54,-135.19)" style="font-variant:normal;font-weight:700;font-size:11.95499992px;font-family:Arial;-inkscape-font-specification:Arial-BoldMT;writing-mode:lr-tb;fill:#000;fill-opacity:1;fill-rule:nonzero;stroke:none"><tspan id="tspan410" x="0 6.647 13.294 19.941" y="0">case</tspan></text></g></g></g></g></g></g></g><g id="g460" transform="matrix(1.25,0,0,-1.25,145.49391,98.00161)"><g id="g462"><g id="g472"><path id="path474" d="m 101.29652,15.69797 -4.01724,14.9985 c -0.53248,1.98823 -2.62948,3.59996 -4.68382,3.59996 l -32.79916,0 c -2.05434,0 -4.15136,-1.61173 -4.68383,-3.59996 L 51.92166,18.78345" style="fill:none;stroke:#ff1919;stroke-width:1.19553006;stroke-linecap:round;stroke-linejoin:miter;stroke-miterlimit:10;stroke-dasharray:none;stroke-opacity:1"/><g id="g476" transform="matrix(-0.25923,-0.96782,0.96782,-0.25923,51.92168,18.78345)"><g id="g478"><path id="path480" d="M 3.18808,0 -1.91284,2.55046 0,0 -1.91284,-2.55046" style="fill:#ff1919;fill-opacity:1;fill-rule:nonzero;stroke:none"/></g></g></g><g id="g482"><g id="g484"><path id="path486" d="m 97.75659,40.80585 -43.12144,0 c -1.10048,0 -1.99255,-0.89209 -1.99255,-1.99255 l 0,-7.94886 c 0,-1.10046 0.89207,-1.99255 1.99255,-1.99255 l 43.12144,0 c 1.10047,0 1.99256,0.89209 1.99256,1.99255 l 0,7.94886 c 0,1.10046 -0.89209,1.99255 -1.99256,1.99255 z" style="fill:#fff2e6;fill-opacity:1;fill-rule:nonzero;stroke:#000;stroke-width:.79701;stroke-linecap:butt;stroke-linejoin:miter;stroke-miterlimit:10;stroke-dasharray:none;stroke-opacity:1"/></g><g id="g488"><g id="g490" transform="scale(-1,-1)"><g id="g494" transform="matrix(-1,0,0,-1,172.54,-135.19)"><g id="g498" transform="matrix(0.7,0,0,0.7,106.57,-8.43)"><text id="text500" transform="matrix(1,0,0,-1,172.54,-135.19)" style="font-variant:normal;font-weight:700;font-size:11.95499992px;font-family:Arial;-inkscape-font-specification:Arial-BoldMT;writing-mode:lr-tb;fill:#000;fill-opacity:1;fill-rule:nonzero;stroke:none"><tspan id="tspan502" x="0 6.647 13.951 24.579 31.884 39.188 46.493 53.798" y="0">compound</tspan></text></g></g></g></g></g></g></g></svg>