<svg xmlns="http://www.w3.org/2000/svg" xmlns:svg="http://www.w3.org/2000/svg" id="svg2" width="130.337" height="54.19" version="1.1" viewBox="0 0 130.337 54.19" xml:space="preserve"><metadata id="metadata8"/><g id="g10" transform="matrix(1.25,0,0,-1.25,-155.03131,767.77398)"><path id="path640" d="m 205.8587,588.51354 -4.01724,14.99851 c -0.53249,1.98822 -2.62949,3.59995 -4.68383,3.59995 l -36.01857,0 c -2.05433,0 -4.15133,-1.61173 -4.68382,-3.59995 l -2.88086,-10.75594" style="fill:none;stroke:#ff1919;stroke-width:1.99255002;stroke-linecap:round;stroke-linejoin:miter;stroke-miterlimit:10;stroke-dasharray:none;stroke-opacity:1"/><g id="g516" transform="translate(176.16,579.79)"><g id="g518"><path id="path520" d="m 2.49913,8.72354 -52.44228,0 c -1.10046,0 -1.99255,-0.89209 -1.99255,-1.99255 l 0,-13.46198 c 0,-1.10046 0.89209,-1.99255 1.99255,-1.99255 l 52.44228,0 c 1.10048,0 1.99255,0.89209 1.99255,1.99255 l 0,13.46198 c 0,1.10046 -0.89207,1.99255 -1.99255,1.99255 z" style="fill:#f93;fill-opacity:1;fill-rule:nonzero;stroke:red;stroke-width:.3985;stroke-linecap:butt;stroke-linejoin:miter;stroke-miterlimit:10;stroke-dasharray:none;stroke-opacity:1"/></g></g><g id="g536" transform="translate(176.16,579.79)"><g id="g538"><path id="path540" d="m 49.94316,8.72354 -32.51871,0 c -1.10046,0 -1.99255,-0.89209 -1.99255,-1.99255 l 0,-13.46198 c 0,-1.10046 0.89209,-1.99255 1.99255,-1.99255 l 32.51871,0 c 1.10046,0 1.99255,0.89209 1.99255,1.99255 l 0,13.46198 c 0,1.10046 -0.89209,1.99255 -1.99255,1.99255 z" style="fill:#f93;fill-opacity:1;fill-rule:nonzero;stroke:red;stroke-width:.3985;stroke-linecap:butt;stroke-linejoin:miter;stroke-miterlimit:10;stroke-dasharray:none;stroke-opacity:1"/></g></g><g id="g564" transform="translate(176.16,579.79)"><g id="g566" transform="scale(-1,-1)"><g id="g570" transform="matrix(-1,0,0,-1,104.16,-190.1)"><g id="g574" transform="translate(-51.74,-3.87)"><g id="g576" transform="translate(132.18,-190.1)"><g id="g578"><g id="g580"><g id="g582"><g id="g584" transform="scale(-1,-1)"><g id="g588" transform="matrix(-1,0,0,-1,132.18,-190.1)"><g id="g592" transform="translate(-24.91,0)"><text style="font-variant:normal;font-weight:400;font-size:11.95499992px;font-family:Arial;-inkscape-font-specification:ArialMT;writing-mode:lr-tb;fill:#000;fill-opacity:1;fill-rule:nonzero;stroke:none" id="text594" transform="matrix(1,0,0,-1,132.18,-190.1)"><tspan id="tspan596" x="0 8.632 15.278 23.91 30.557 37.204 41.185" y="0">CoNLL-U</tspan></text></g></g></g></g></g></g></g><g id="g600" transform="translate(189.58,-190.1)"><g id="g602"><g id="g604"><g id="g606"><g id="g608" transform="scale(-1,-1)"><g id="g612" transform="matrix(-1,0,0,-1,189.58,-190.1)"><g id="g616" transform="translate(-14.95,0)"><text style="font-variant:normal;font-weight:400;font-size:11.95499992px;font-family:Arial;-inkscape-font-specification:ArialMT;writing-mode:lr-tb;fill:#000;fill-opacity:1;fill-rule:nonzero;stroke:none" id="text618" transform="matrix(1,0,0,-1,189.58,-190.1)"><tspan id="tspan620" x="0 6.647 13.294 15.948 19.271 25.918" y="0">editor</tspan></text></g></g></g></g></g></g></g></g></g></g></g><g id="g642" transform="matrix(-0.25923,-0.96782,0.96782,-0.25923,153.57438,592.75611)"><g id="g644"><path id="path646" d="M 4.38364,0 -2.63017,3.50691 0,0 -2.63017,-3.50691" style="fill:#ff1919;fill-opacity:1;fill-rule:nonzero;stroke:none"/></g></g><g id="g648" transform="translate(176.16,579.79)"><g id="g650"><path style="fill:#fff2e6;fill-opacity:1;fill-rule:nonzero;stroke:#000;stroke-width:1.19553006;stroke-linecap:butt;stroke-linejoin:miter;stroke-miterlimit:10;stroke-dasharray:none;stroke-opacity:1" id="path652" d="m 14.55405,33.83142 -23.13138,0 c -1.10047,0 -1.99256,-0.89209 -1.99256,-1.99255 l 0,-7.94884 c 0,-1.10048 0.89209,-1.99255 1.99256,-1.99255 l 23.13138,0 c 1.10048,0 1.99255,0.89207 1.99255,1.99255 l 0,7.94884 c 0,1.10046 -0.89207,1.99255 -1.99255,1.99255 z"/></g><g id="g654"><g id="g656" transform="scale(-1,-1)"><g id="g660" transform="matrix(-1,0,0,-1,104.16,-190.1)"><g id="g664" transform="matrix(0.7,0,0,0.7,22.85,-31.88)"><text style="font-variant:normal;font-weight:700;font-size:11.95499992px;font-family:Arial;-inkscape-font-specification:Arial-BoldMT;writing-mode:lr-tb;fill:#000;fill-opacity:1;fill-rule:nonzero;stroke:none" id="text666" transform="matrix(1,0,0,-1,104.16,-190.1)"><tspan id="tspan668" x="0 7.305 17.933 25.237" y="0">nmod</tspan></text></g></g></g></g></g></g></svg>